<?xml version="1.0" encoding="utf-8"?>
<!-- Generator: Adobe Illustrator 15.0.0, SVG Export Plug-In  -->
<!DOCTYPE svg PUBLIC "-//W3C//DTD SVG 1.1//EN" "http://www.w3.org/Graphics/SVG/1.1/DTD/svg11.dtd" [
	<!ENTITY ns_flows "http://ns.adobe.com/Flows/1.0/">
]>
<svg version="1.1"
	 xmlns="http://www.w3.org/2000/svg" xmlns:xlink="http://www.w3.org/1999/xlink" xmlns:a="http://ns.adobe.com/AdobeSVGViewerExtensions/3.0/"
	 x="0px" y="0px" width="52px" height="73px" viewBox="0 0 52 73" enable-background="new 0 0 52 73" xml:space="preserve">
<defs>
</defs>
<path fill="#FFFFFF" d="M51.402,53.434c0-16.609-11.785-28.75-20.246-33.141C42.523,7.437,39.148-0.469,33.508,4.656
	c-5.77,5.246-9.703-1.836-20.457-4.457c-9.321-2.273,3.23,15.547,6.734,20.332C11.367,25.117,0,37.125,0,53.434
	c0,4.133,0.734,7.363,2.059,9.887c-1.543,2.508-2.016,4.773-0.985,5.805c0.992,0.992,3.125,0.594,5.52-0.813
	c4.703,3.098,11.519,3.742,19.109,3.742c7.688,0,14.582-0.664,19.293-3.871c2.477,1.508,4.707,1.961,5.73,0.941
	c1.078-1.078,0.516-3.512-1.207-6.156C50.727,60.496,51.402,57.379,51.402,53.434L51.402,53.434z M36.238,40.313h-3.816
	c-0.113,0.629-0.27,1.316-0.484,2.031h4.301l-1.164,3.484H30.43c-0.473,0.789-1.039,1.555-1.723,2.25
	c-1.332,1.355-2.937,2.301-4.789,2.824l9.367,9.367l-0.09,0.086h-4.75l-9.48-9.477l1.23-2.973c2.446,0,4.352-0.684,5.828-2.078
	h-8.882l1.164-3.484h9.953c0.27-0.695,0.426-1.387,0.57-2.031H17.52l1.16-3.484h18.718L36.238,40.313z M36.238,40.313"/>
</svg>
