<?xml version="1.0" encoding="utf-8"?>
<!-- Generator: Adobe Illustrator 15.0.0, SVG Export Plug-In  -->
<!DOCTYPE svg PUBLIC "-//W3C//DTD SVG 1.1//EN" "http://www.w3.org/Graphics/SVG/1.1/DTD/svg11.dtd" [
	<!ENTITY ns_flows "http://ns.adobe.com/Flows/1.0/">
]>
<svg version="1.1"
	 xmlns="http://www.w3.org/2000/svg" xmlns:xlink="http://www.w3.org/1999/xlink" xmlns:a="http://ns.adobe.com/AdobeSVGViewerExtensions/3.0/"
	 x="0px" y="0px" width="14px" height="14px" viewBox="0 -0.001 14 14" enable-background="new 0 -0.001 14 14"
	 xml:space="preserve">
<defs>
</defs>
<path fill="#FFFFFF" d="M4.238,4.467L1.121,1.351C1.523,0.948,1.926,0.542,2.328,0.14c0.188-0.184,0.488-0.187,0.676-0.004
	l2.426,2.43c0.187,0.187,0.187,0.492,0,0.68L4.402,4.272C4.34,4.331,4.285,4.397,4.238,4.467L4.238,4.467z M6.805,9.549
	c-0.512-0.44-1-0.906-1.477-1.379C4.852,7.691,4.387,7.203,3.949,6.69C3.59,6.276,3.52,5.67,3.707,5.167L0.508,1.963
	c-0.746,0.766-0.653,2.664,0.164,4.332C1.023,7.019,1.477,7.67,1.945,8.289c0.469,0.613,0.985,1.195,1.528,1.742
	c0.543,0.543,1.121,1.062,1.734,1.53c0.621,0.47,1.273,0.923,1.992,1.27c1.668,0.817,3.566,0.907,4.332,0.161l-3.199-3.2
	C7.824,9.979,7.219,9.91,6.805,9.549L6.805,9.549z M13.359,10.496l-2.43-2.43c-0.188-0.185-0.492-0.185-0.68,0L9.719,8.6
	L9.223,9.092C9.164,9.156,9.098,9.209,9.027,9.256l3.117,3.121c0.402-0.406,0.805-0.804,1.207-1.207
	C13.543,10.984,13.547,10.682,13.359,10.496L13.359,10.496z M13.359,10.496"/>
</svg>
