<?xml version="1.0" encoding="utf-8"?>
<!-- Generator: Adobe Illustrator 15.0.0, SVG Export Plug-In  -->
<!DOCTYPE svg PUBLIC "-//W3C//DTD SVG 1.1//EN" "http://www.w3.org/Graphics/SVG/1.1/DTD/svg11.dtd" [
	<!ENTITY ns_flows "http://ns.adobe.com/Flows/1.0/">
]>
<svg version="1.1"
	 xmlns="http://www.w3.org/2000/svg" xmlns:xlink="http://www.w3.org/1999/xlink" xmlns:a="http://ns.adobe.com/AdobeSVGViewerExtensions/3.0/"
	 x="0px" y="0px" width="267px" height="397px" viewBox="0 0 267 397" enable-background="new 0 0 267 397" xml:space="preserve">
<defs>
</defs>
<path fill="#1389CA" d="M229.824,66.914c-20.254,0-36.727,16.48-36.727,36.726c0,20.254,16.473,36.739,36.727,36.739
	c20.262,0,36.727-16.481,36.727-36.739C266.551,83.387,250.086,66.914,229.824,66.914L229.824,66.914z M229.824,132.281
	c-15.805,0-28.648-12.844-28.648-28.644C201.176,87.84,214.02,75,229.824,75c15.789,0,28.648,12.84,28.648,28.637
	C258.473,119.437,245.613,132.281,229.824,132.281L229.824,132.281z M229.824,132.281"/>
<path fill="#1389CA" d="M253.301,93.441c-1.094-1.976-3.563-2.719-5.559-1.633l-17.004,9.27l-19.125-9.356
	c-2.039-0.98-4.5-0.152-5.484,1.883c-0.992,2.028-0.152,4.485,1.879,5.469l21.039,10.289c0.566,0.281,1.168,0.422,1.797,0.422
	c0.66,0,1.352-0.172,1.965-0.492l18.852-10.297C253.633,97.914,254.379,95.426,253.301,93.441L253.301,93.441z M253.301,93.441"/>
<path fill="#1389CA" d="M130.109,82.101c22.313-0.425,40.27-18.636,40.27-41.05S152.422,0.426,130.109,0
	c-22.312,0.429-40.273,18.637-40.273,41.051S107.797,81.676,130.109,82.101L130.109,82.101z M130.109,82.101"/>
<path fill="#1389CA" d="M234.734,149.789c-11.859-0.004-26.406-0.535-32.992-1.352c-1.996-2.726-4.992-7.25-7.34-10.789
	c-8.332-12.566-18.25-27.449-29.117-37.754c-8.07-7.66-15.34-12.933-24.781-15.496c-0.035-0.004-0.074-0.004-0.113-0.011
	l-9.917,10.414l-0.364-0.368l10.372,68.102l-9.911,13.551h-0.191l-0.27-0.367l-0.269,0.367h-0.195l-9.911-13.551l10.375-68.102
	l-0.367,0.368l-9.914-10.414c-0.043,0.007-0.078,0.007-0.117,0.011C110.27,86.961,103,92.234,94.93,99.894
	c-10.864,10.305-20.785,25.188-29.118,37.754c-2.347,3.539-5.343,8.063-7.335,10.789c-6.586,0.817-21.137,1.348-32.997,1.352
	c-8.804,0.008-15.941,7.152-15.925,15.961c0.004,8.804,7.14,15.929,15.941,15.929h0.012c38.75-0.023,45.414-3.152,47.926-4.328
	c5.039-2.363,8.621-6.742,14.277-15.078v47.333c0,6.813,3.016,14.926,3.715,15.801c-0.102,0.801-0.114,152.566-0.114,152.566
	c0,10.41,7.395,18.926,17.797,18.914c10.414,0,18.852-8.434,18.844-18.852l-0.012-131.039l2.168,0.004l2.168-0.004l-0.015,131.039
	c-0.004,10.418,8.434,18.852,18.844,18.852c10.402,0.012,17.797-8.504,17.797-18.914c0,0-0.008-151.766-0.113-152.566
	c0.699-0.875,3.719-8.988,3.719-15.801v-47.333c5.656,8.336,9.238,12.715,14.277,15.078c2.512,1.176,9.176,4.305,47.922,4.328h0.016
	c8.801,0,15.938-7.125,15.941-15.929C250.676,156.941,243.543,149.797,234.734,149.789L234.734,149.789z M234.734,149.789"/>
<path fill="#1389CA" d="M46.113,74.34l2.094-2.832c0,0,8.082-11.727,8.707-12.59c1.43-1.969,3.352-11.02-10.047,1.133
	c-13.39,12.156-36.414-10.305-37.312-7.348c-0.914,2.976,13.207,18.805,13.207,18.805l1.468,1.64C10.234,77.262,0,90.426,0,106.082
	c0,18.945,14.98,34.297,33.469,34.297c18.492,0,33.48-15.352,33.48-34.297C66.949,91.722,58.324,79.437,46.113,74.34z
	 M46.419,100.206c0,0.242-0.078,0.441-0.234,0.598c-0.156,0.157-0.355,0.235-0.599,0.235h-4.372
	c-0.399,2.497-1.519,4.527-3.358,6.089c-1.839,1.562-4.233,2.516-7.182,2.862c2.897,3.088,6.879,7.739,11.946,13.95
	c0.243,0.277,0.277,0.573,0.103,0.884c-0.137,0.314-0.39,0.47-0.753,0.47h-5.076c-0.277,0-0.494-0.104-0.65-0.312
	c-5.31-6.368-9.63-11.322-12.962-14.861c-0.156-0.156-0.234-0.347-0.234-0.573v-3.305c0-0.227,0.083-0.421,0.248-0.587
	c0.164-0.165,0.359-0.246,0.585-0.246h2.915c2.29,0,4.134-0.375,5.53-1.12c1.397-0.746,2.287-1.83,2.668-3.253H23.881
	c-0.244,0-0.443-0.078-0.599-0.234c-0.156-0.156-0.234-0.356-0.234-0.599V97.55c0-0.243,0.078-0.441,0.234-0.597
	c0.156-0.157,0.355-0.236,0.599-0.236h10.748c-0.989-1.96-3.314-2.94-6.975-2.94h-3.773c-0.226,0-0.421-0.083-0.585-0.246
	c-0.166-0.165-0.248-0.36-0.248-0.586v-3.461c0-0.243,0.078-0.443,0.234-0.599c0.156-0.155,0.355-0.234,0.599-0.234h21.651
	c0.244,0,0.444,0.079,0.599,0.234c0.157,0.156,0.234,0.356,0.234,0.599v2.655c0,0.243-0.078,0.443-0.234,0.599
	c-0.155,0.156-0.355,0.234-0.599,0.234h-6.062c0.816,1.057,1.371,2.308,1.666,3.748h4.45c0.244,0,0.443,0.078,0.599,0.234
	c0.156,0.156,0.234,0.355,0.234,0.599V100.206z"/>
</svg>
