<?xml version="1.0" encoding="utf-8"?>
<!-- Generator: Adobe Illustrator 15.0.0, SVG Export Plug-In  -->
<!DOCTYPE svg PUBLIC "-//W3C//DTD SVG 1.1//EN" "http://www.w3.org/Graphics/SVG/1.1/DTD/svg11.dtd" [
	<!ENTITY ns_flows "http://ns.adobe.com/Flows/1.0/">
]>
<svg version="1.1"
	 xmlns="http://www.w3.org/2000/svg" xmlns:xlink="http://www.w3.org/1999/xlink" xmlns:a="http://ns.adobe.com/AdobeSVGViewerExtensions/3.0/"
	 x="0px" y="0px" width="250px" height="51px" viewBox="-1 -2.321 250 51" enable-background="new -1 -2.321 250 51"
	 xml:space="preserve">
<defs>
</defs>
<path fill="#00A9EC" d="M21.365,2.465C9.565,2.465,0,12.031,0,23.831C0,35.388,9.176,44.8,20.64,45.183V28.585
	c-2.312-0.35-4.084-2.345-4.084-4.754c0-2.656,2.153-4.81,4.81-4.81s4.81,2.153,4.81,4.81c0,2.41-1.772,4.405-4.084,4.754v16.598
	c11.464-0.383,20.64-9.795,20.64-21.352C42.731,12.031,33.165,2.465,21.365,2.465z"/>
<path fill-rule="evenodd" clip-rule="evenodd" d="M186.379,6.048c-0.303-1.275-0.694-3.35-2.777-3.188
	c-0.224-0.804-0.587-1.469-0.823-2.263c1.384-1.773,3.039,0.82,3.703,2.366c0.703,1.633,1.03,3.295,1.337,4.525
	c6.72,0,13.439,0,20.16,0c0.394,0.637,0.667,1.391,1.132,1.955c-2.571,0.239-5.589,0.034-8.332,0.103c0,1.131,0,2.263,0,3.394
	c0.557-0.013,1.098-0.533,1.748-0.617c4.046-0.521,4.723,5.552,2.675,8.022c-0.92-0.314-1.533-0.935-2.366-1.337
	c0.533-1.349,1.848-2.912,1.235-4.731c-1.409-0.256-2.359,0.78-3.292,1.337c0,1.611,0,3.223,0,4.834
	c-0.463,0.143-1.539-0.851-2.159-1.234c0-0.686,0-1.372,0-2.057c-2.236,1.953-6.988,0.868-7.509-2.057
	c-0.787-4.423,5.434-5.427,7.509-2.469c0-0.995,0-1.988,0-2.983c-3.224-0.24-6.893-0.034-10.286-0.103
	c0.006,3.619-0.007,7.722,0,11.005c-0.954-0.247-1.479-0.921-2.263-1.337c0-0.583,0-1.166,0-1.749
	c-2.796,2.215-7.733,0.222-7.2-3.806c0.418-3.154,5.137-4.581,7.2-1.852c0-0.754,0-1.509,0-2.263c-2.812,0-5.623,0-8.435,0
	c-0.527-0.535-0.894-1.232-1.131-2.058c3.291,0,6.582,0,9.874,0c-0.159-1.337-2.421-2.129-4.217-1.542
	c-0.206-0.818-0.77-1.728-0.721-2.469C183.835,2.792,185.396,4.646,186.379,6.048z M182.778,12.837
	c-3.421-0.355-1.786,5.557,0.926,3.291c-0.076-1.193-0.813-2.27-0.72-3.291c1.258,0.326,1.506,2.272,0.823,3.394
	c1.691,0.114,1.764-1.392,1.646-3.085c-0.664-0.442-1.532-1.197-2.675-0.823C182.646,12.578,183.081,12.749,182.778,12.837z
	 M198.619,14.277c-0.069-0.569-1.593-1.246-2.572-1.337c-2.263-0.212-3.649,1.396-2.674,3.497
	C194.932,17.146,198.758,15.426,198.619,14.277z"/>
<path fill-rule="evenodd" clip-rule="evenodd" d="M158.094,7.488c4.766,0,9.531,0,14.297,0c0.375,0.654,0.694,1.363,1.132,1.955
	c-1.338,0.239-3.12,0.034-4.629,0.103c-0.24,1.234-0.034,2.914-0.103,4.32c-2.622-0.182-6.599,1.744-5.04,4.32
	c1.136,1.878,5.143-0.11,6.068-1.028c0.424,0.638,0.831,1.294,1.132,2.057c-2.887,2.988-9.485,1.024-9.463-3.292
	c0.011-2.216,2.117-3.811,4.937-3.703c0-0.857,0-1.714,0-2.572c-2.88-0.24-6.205-0.034-9.256-0.103
	c-0.24,1.234-0.035,2.914-0.104,4.32c-2.621-0.182-6.599,1.744-5.04,4.32c1.134,1.874,5.151-0.1,6.068-1.028
	c0.444,0.619,0.837,1.289,1.132,2.057c-2.848,2.688-9.643,1.389-9.359-3.292c-1.412,0.04-2.795,0.05-3.395-0.72
	c-0.347,0.442-0.544,1.034-1.131,1.234c0.912,1.383,2.26,2.333,3.188,3.703c-0.284,0.197-0.524,0.437-0.722,0.72
	c-0.897-0.718-1.858-1.946-3.188-3.394c-0.823-0.898-4.042-3.566-2.159-4.526c0.654-0.333,1.409,0.123,1.955,0.412
	c0-1.235,0-2.468,0-3.703c-1.099-0.24-2.641-0.034-3.91-0.103c-0.281-0.747-0.841-1.216-1.028-2.058c5.761,0,11.521,0,17.28,0
	c-0.633-1.514-2.002-4.091-4.731-3.188c-0.354-0.779-0.79-1.472-1.131-2.263c0.458-0.397,1.102-0.612,2.057-0.514
	C155.385,2.792,156.601,5.278,158.094,7.488z M146.678,13.763c1.339,1.096,3.316,0.122,4.114-0.823
	c0.056,0.149-0.121,0.532,0.103,0.515c0.899-0.78,2.106-1.253,3.806-1.234c0-0.892,0-1.783,0-2.674
	c-2.675,0.068-5.623-0.137-8.127,0.103C146.813,10.814,146.609,12.425,146.678,13.763z"/>
<path fill-rule="evenodd" clip-rule="evenodd" d="M120.448,7.488c4.972,0,9.943,0,14.914,0c0.413,0.617,0.709,1.349,1.132,1.955
	c-0.756,0.239-1.953,0.035-2.88,0.103c-0.24,3.497-0.034,7.44-0.103,11.108c-0.79-0.445-1.48-0.99-2.264-1.44
	c0-0.617,0-1.234,0-1.852c-3.375,2.105-6.971-1.314-7.405-4.834c1.103-0.337,2.391-0.49,3.188-1.132
	c0.482-2.685-3.604-1.67-5.966-1.851c-0.24,3.429-0.034,7.303-0.103,10.902c-0.451,0.129-1.539-0.851-2.16-1.234
	c0-3.223,0-6.446,0-9.668c-1.063,0-2.125,0-3.188,0c-0.24,3.429-0.034,7.303-0.103,10.902c-0.532,0.176-1.542-0.918-2.263-1.234
	c0-1.886,0-3.771,0-5.657c-1.872-0.301-3.759-0.197-4.011,1.234c-0.339,1.924,1.493,3.515,2.057,4.834
	c-0.283,0.197-0.523,0.437-0.72,0.72c-1.145-1.263-4.563-5.398-2.983-7.817c0.866-1.327,3.228-0.982,5.554-1.029
	c0.238-0.448,0.035-1.336,0.103-1.954c-3.394,0-6.788,0-10.183,0c-0.175,2.568,0.656,6.141-1.337,6.891
	c0.873,1.393,2.611,2.46,3.188,3.806c-0.094-0.137-0.437,0.467-0.617,0.514c-0.511,0.136-2.342-2.162-3.188-3.085
	c-0.522-0.57-1.024-1.184-1.543-1.749c-0.603-0.656-1.971-2.03-0.823-2.88c0.53-0.393,1.513-0.126,2.057,0.309
	c0-1.269,0-2.537,0-3.806c-1.646,0-3.292,0-4.937,0c-0.24,3.497-0.034,7.44-0.103,11.108c-0.808-0.426-1.545-0.924-2.263-1.44
	c0-3.223,0-6.446,0-9.668c-1.063,0-2.125,0-3.189,0c-0.239,3.497-0.034,7.44-0.103,11.108c-0.768-0.501-1.604-0.932-2.263-1.543
	c0.061-0.899-0.126-2.047,0.104-2.777c-0.899-0.233-2.223-0.041-3.292-0.103c-0.061,4.466-3.649-0.197-4.114-1.44
	c0.271-0.585,1.175-0.54,2.057-0.514c0.22-1.213-1.261-1.177-1.851-1.543c-1.022-0.634-2.654-2.237-1.852-4.012
	c0.892-1.97,4.417-1.179,5.349,0.514c0.77,1.4,0.061,3.087,0.309,5.041c1.063,0,2.126,0,3.188,0c0.24-1.372,0.035-3.188,0.103-4.731
	c-0.582,0-1.165,0-1.749,0c-0.594-0.503-0.838-1.356-1.233-2.058c11.417,0,22.833,0,34.25,0c0.425-2.723-4.71-5.426-4.628-0.926
	c-2.282,0.428-2.361-2.442-1.646-3.394c1.26-1.677,4.517-1.242,5.862,0.103C119.935,4.403,120.238,5.729,120.448,7.488z
	 M82.7,12.014c0-1.098,0-2.195,0-3.292C80.317,8.175,80.615,12.468,82.7,12.014z M129.089,12.939
	c-0.424,1.235-3.065,0.565-3.087,1.955c-0.01,0.665,0.928,0.997,1.544,1.028c1.347,0.07,3.063-0.808,3.702-1.543
	c0-1.611,0-3.223,0-4.834c-1.304,0.068-2.878-0.137-4.011,0.103C128.381,10.219,129.06,11.254,129.089,12.939z"/>
<path fill-rule="evenodd" clip-rule="evenodd" d="M191.83,4.299c-0.618,0.41-1.01,1.047-1.749,1.337
	c-0.313-0.613-0.949-0.902-1.234-1.543c0.61-0.316,1.044-0.808,1.543-1.234C190.998,3.211,191.479,3.691,191.83,4.299z"/>
<path fill-rule="evenodd" clip-rule="evenodd" fill="#FFFFFF" d="M82.7,8.722c0,1.097,0,2.194,0,3.292
	C80.615,12.468,80.317,8.175,82.7,8.722z"/>
<path fill-rule="evenodd" clip-rule="evenodd" fill="#FFFFFF" d="M127.237,9.648c1.133-0.24,2.707-0.034,4.011-0.103
	c0,1.611,0,3.223,0,4.834c-0.639,0.735-2.355,1.613-3.702,1.543c-0.616-0.032-1.554-0.363-1.544-1.028
	c0.021-1.389,2.663-0.72,3.087-1.955C129.06,11.254,128.381,10.219,127.237,9.648z"/>
<path fill-rule="evenodd" clip-rule="evenodd" fill="#FFFFFF" d="M146.573,9.648c2.504-0.24,5.452-0.034,8.127-0.103
	c0,0.891,0,1.782,0,2.674c-1.699-0.019-2.906,0.455-3.806,1.234c-0.224,0.017-0.047-0.365-0.103-0.515
	c-0.798,0.945-2.775,1.919-4.114,0.823C146.609,12.425,146.813,10.814,146.573,9.648z"/>
<path fill-rule="evenodd" clip-rule="evenodd" fill="#FFFFFF" d="M193.373,16.437c-0.976-2.101,0.411-3.709,2.674-3.497
	c0.979,0.092,2.503,0.769,2.572,1.337C198.758,15.426,194.932,17.146,193.373,16.437z"/>
<path fill-rule="evenodd" clip-rule="evenodd" d="M59.558,26.929c0,1.474,0,2.948,0,4.422c-0.905-0.512-3.496-1.017-3.6,0.72
	c-0.083,1.372,1.945,2.257,2.777,3.292c1.207,1.5,1.818,4.454,0.617,6.686c-1.216,2.259-4.265,3.254-8.125,2.571
	c-0.169-1.511-0.084-3.275-0.103-4.938c0.913,0.616,3.393,0.699,3.497-0.822c0.063-0.915-1.237-2.022-1.954-2.777
	c-0.991-1.044-1.831-2.182-1.852-4.012C50.765,27.707,55.113,25.555,59.558,26.929z"/>
<path fill-rule="evenodd" clip-rule="evenodd" d="M187.201,26.723c0,1.337,0,2.674,0,4.011c-0.952-0.062-1.724,0.059-1.748,0.926
	c0.379,0.238,1.198,0.035,1.748,0.104c0,1.303,0,2.605,0,3.908c-0.289-0.075-1.152,0.05-1.748,0c0,2.948,0,5.896,0,8.845
	c-1.371,0-2.743,0-4.114,0c0-2.914,0-5.828,0-8.742c-0.109-0.233-0.646-0.04-0.926-0.103c0-1.303,0-2.605,0-3.908
	c0.309,0,0.617,0,0.926,0C181.26,28.049,183.245,26.399,187.201,26.723z"/>
<path fill-rule="evenodd" clip-rule="evenodd" d="M118.7,35.567c2.109,0.516,2.833,4.201,1.851,6.377
	c-1.468,3.256-6.888,2.55-11.314,2.571c0.069-5.862-0.137-11.999,0.103-17.69c5.623-0.161,11.691-0.607,11.623,4.938
	C120.94,33.593,120.148,34.89,118.7,35.567z M113.763,33.717c3.43,0.973,3.507-3.878,0-2.88
	C113.763,31.797,113.763,32.757,113.763,33.717z M113.763,40.401c3.634,1.018,3.52-4.05,0-3.085
	C113.763,38.345,113.763,39.373,113.763,40.401z"/>
<path fill-rule="evenodd" clip-rule="evenodd" d="M151.923,26.825c0,3.497,0,6.994,0,10.491c0.982-1.795,1.907-3.646,2.777-5.554
	c1.439,0,2.88,0,4.319,0c-0.887,2.061-2.016,3.88-2.982,5.862c1.065,2.328,2.211,4.578,3.395,6.788
	c-1.303,0.24-3.052,0.034-4.526,0.103c-0.921-2.131-1.978-4.126-2.88-6.273c-0.239,1.886-0.034,4.217-0.103,6.273
	c-1.371,0-2.742,0-4.115,0c0-5.896,0-11.793,0-17.69C149.181,26.825,150.552,26.825,151.923,26.825z"/>
<path fill-rule="evenodd" clip-rule="evenodd" d="M195.841,26.825c1.475,0,2.95,0,4.423,0c0,5.897,0,11.794,0,17.69
	c-1.508,0-3.017,0-4.525,0C195.807,38.653,195.603,32.517,195.841,26.825z"/>
<path fill-rule="evenodd" clip-rule="evenodd" d="M228.036,26.825c0.24,5.691,0.034,11.828,0.103,17.69c-1.303,0-2.605,0-3.908,0
	c-0.418,0.04-0.113-0.641-0.206-0.926c-4.18,3.221-9.397-0.892-8.846-6.273c0.333-3.246,2.677-6.175,6.892-5.657
	c0.77,0.095,1.23,0.396,1.954,0.72c0-1.851,0-3.702,0-5.554C225.362,26.825,226.699,26.825,228.036,26.825z M220.939,40.401
	c3.214,0.753,3.653-3.876,1.336-4.422c-0.338-0.079-1.173,0.058-1.336,0.103C218.571,36.725,219.251,40.008,220.939,40.401z"/>
<path fill-rule="evenodd" clip-rule="evenodd" d="M234.413,26.825c0,1.303,0,2.605,0,3.908c-1.371,0-2.743,0-4.114,0
	c0-1.303,0-2.605,0-3.908C231.67,26.825,233.042,26.825,234.413,26.825z"/>
<path fill-rule="evenodd" clip-rule="evenodd" d="M66.038,31.659c0.312,0.237,1.062,0.037,1.543,0.104c0,1.303,0,2.605,0,3.908
	c-0.515,0-1.028,0-1.543,0c0.055,1.419-0.154,3.103,0.206,4.217c0.392,0.279,1.066,0.401,1.646,0.206
	c-0.233,1.55-0.398,3.167-0.823,4.525c-1.948,0.116-3.697,0.266-4.525-0.926c-1.209-1.739-0.322-5.13-0.617-7.92
	c-0.044-0.23-0.507-0.042-0.72-0.103c0-1.303,0-2.605,0-3.908c0.24,0,0.48,0,0.72,0c0-0.446,0-0.892,0-1.338
	c1.334-0.758,2.661-1.521,3.909-2.365C66.306,28.854,65.906,30.522,66.038,31.659z"/>
<path fill-rule="evenodd" clip-rule="evenodd" d="M85.786,31.659c0.311,0.237,1.061,0.037,1.543,0.104c0,1.268,0,2.536,0,3.805
	c-0.338,0.212-1.042,0.056-1.543,0.104c0.08,1.395-0.192,3.14,0.206,4.217c0.391,0.279,1.066,0.401,1.646,0.206
	c-0.247,1.535-0.441,3.124-0.823,4.525c-1.989,0.125-3.855,0.249-4.628-1.029c-1.104-1.823-0.206-5.058-0.514-7.816
	c-0.044-0.23-0.507-0.042-0.72-0.103c0-1.303,0-2.605,0-3.908c0.24,0,0.48,0,0.72,0c0-0.446,0-0.892,0-1.338
	c1.331-0.76,2.664-1.52,3.908-2.365C86.054,28.854,85.654,30.522,85.786,31.659z"/>
<path fill-rule="evenodd" clip-rule="evenodd" fill="#FFFFFF" d="M113.763,30.837c3.507-0.998,3.43,3.853,0,2.88
	C113.763,32.757,113.763,31.797,113.763,30.837z"/>
<path fill-rule="evenodd" clip-rule="evenodd" d="M145.751,44.516c-1.37,0-2.742,0-4.114,0c0-1.532,0-2.929,0-4.73
	c0-1.47,0.347-3.628-0.823-3.909c-2.836-0.68-1.239,6.619-1.646,8.64c-1.371,0-2.742,0-4.114,0c0-4.251,0-8.502,0-12.753
	c1.269,0,2.537,0,3.807,0c0.425-0.016,0.106,0.715,0.205,1.028c0.959-0.989,3.444-1.626,4.937-0.823
	C147.063,33.612,145.239,40.282,145.751,44.516z"/>
<path fill-rule="evenodd" clip-rule="evenodd" d="M172.185,31.659c7.729-1.047,9.287,10.063,3.292,12.651
	c-5.3,2.287-10.451-3.306-8.435-8.64C167.784,33.711,169.653,32.002,172.185,31.659z M173.008,40.505
	c2.64-0.044,2.593-4.783-0.103-4.629C169.953,36.046,170.397,40.549,173.008,40.505z"/>
<path fill-rule="evenodd" clip-rule="evenodd" d="M213.637,44.516c-1.372,0-2.744,0-4.115,0c0-1.532,0.001-2.929,0-4.73
	c0-1.477,0.367-3.634-0.822-3.909c-2.815-0.652-1.252,6.607-1.646,8.64c-1.371,0-2.742,0-4.113,0
	c0.067-4.217-0.137-8.708,0.103-12.753c1.234,0,2.467,0,3.702,0c0.435,0.013,0.103,0.788,0.206,1.131
	c1.058-1.236,3.485-1.707,4.937-0.926C214.939,33.608,213.138,40.305,213.637,44.516z"/>
<path fill-rule="evenodd" clip-rule="evenodd" d="M100.597,35.876c-2.057,1.783-4.453,3.228-6.583,4.938
	c2.321,0.697,4.265-0.547,5.451-1.646c0.314,1.16,0.201,2.748,0.412,4.011c-1.308,1.047-2.869,1.643-4.834,1.646
	c-4.315,0.007-6.935-3.488-6.377-7.61c0.415-3.073,2.997-6.07,7.2-5.555C98.398,31.97,99.664,33.752,100.597,35.876z M92.472,38.242
	c1.124-1.002,2.457-1.794,3.6-2.777C94.254,34.247,91.806,36.001,92.472,38.242z"/>
<path fill-rule="evenodd" clip-rule="evenodd" d="M79.204,44.516c-1.097,0-2.194,0-3.292,0c-0.391,0.083-0.131-0.486-0.206-0.72
	c-4.656,3.698-8.768-3.413-5.349-6.686c0.954-0.913,3.457-1.636,5.04-0.617c0.136-2.472-3.161-1.611-5.04-1.543
	c0.063-1.033,0.349-1.846,0.412-2.88c2.744-0.385,6.522-0.859,7.817,1.132C80.264,35.781,78.603,40.622,79.204,44.516z
	 M74.061,41.431c1.861,0.27,1.975-2.862,0.103-2.571C72.695,39.087,72.759,41.242,74.061,41.431z"/>
<path fill-rule="evenodd" clip-rule="evenodd" d="M132.895,44.516c-1.098,0-2.194,0-3.292,0c-0.455-0.049,0.021-0.391-0.205-0.617
	c-0.713,0.35-1.427,0.896-2.469,0.926c-5.312,0.153-5.525-9.247,0.514-8.845c0.652,0.043,1.02,0.26,1.646,0.514
	c0.119-2.665-3.024-1.505-5.041-1.543c0.227-0.939,0.363-1.969,0.516-2.982c2.82-0.142,6.378-0.804,7.714,1.132
	C133.999,35.593,132.268,40.639,132.895,44.516z M126.826,40.607c0.403,1.557,3.664,0.747,2.263-1.337
	c-0.149-0.222-0.605-0.53-1.234-0.411C126.882,39.043,126.566,39.61,126.826,40.607z"/>
<path fill-rule="evenodd" clip-rule="evenodd" d="M234.413,31.763c0,4.251,0,8.502,0,12.753c-1.371,0-2.743,0-4.114,0
	c0.068-4.217-0.137-8.708,0.103-12.753C231.739,31.763,233.076,31.763,234.413,31.763z"/>
<path fill-rule="evenodd" clip-rule="evenodd" d="M246.344,44.516c-1.097,0-2.194,0-3.291,0c-0.373,0.098-0.144-0.404-0.206-0.617
	c-2.896,2.111-6.537,0.131-6.582-3.394c-0.039-2.975,2.92-5.647,6.273-4.012c0.084-2.619-3.015-1.537-5.039-1.543
	c0.175-0.988,0.313-2.02,0.514-2.982c2.526-0.139,6.064-0.765,7.509,0.926C247.576,35.296,245.68,40.561,246.344,44.516z
	 M241.818,41.431c1.498-0.297,1.041-2.843-0.515-2.571C239.457,39.181,240.347,41.722,241.818,41.431z"/>
<path fill-rule="evenodd" clip-rule="evenodd" fill="#FFFFFF" d="M96.072,35.465c-1.143,0.983-2.476,1.775-3.6,2.777
	C91.806,36.001,94.254,34.247,96.072,35.465z"/>
<path fill-rule="evenodd" clip-rule="evenodd" fill="#FFFFFF" d="M172.905,35.876c2.695-0.154,2.742,4.585,0.103,4.629
	C170.397,40.549,169.953,36.046,172.905,35.876z"/>
<path fill-rule="evenodd" clip-rule="evenodd" fill="#FFFFFF" d="M220.939,36.082c0.163-0.045,0.998-0.182,1.336-0.103
	c2.317,0.546,1.878,5.175-1.336,4.422C219.251,40.008,218.571,36.725,220.939,36.082z"/>
<path fill-rule="evenodd" clip-rule="evenodd" fill="#FFFFFF" d="M113.763,37.316c3.52-0.965,3.634,4.103,0,3.085
	C113.763,39.373,113.763,38.345,113.763,37.316z"/>
<path fill-rule="evenodd" clip-rule="evenodd" fill="#FFFFFF" d="M74.164,38.859c1.873-0.291,1.758,2.841-0.103,2.571
	C72.759,41.242,72.695,39.087,74.164,38.859z"/>
<path fill-rule="evenodd" clip-rule="evenodd" fill="#FFFFFF" d="M127.854,38.859c0.629-0.119,1.085,0.189,1.234,0.411
	c1.401,2.084-1.859,2.894-2.263,1.337C126.566,39.61,126.882,39.043,127.854,38.859z"/>
<path fill-rule="evenodd" clip-rule="evenodd" fill="#FFFFFF" d="M241.304,38.859c1.556-0.271,2.013,2.274,0.515,2.571
	C240.347,41.722,239.457,39.181,241.304,38.859z"/>
<path fill-rule="evenodd" clip-rule="evenodd" fill="#FFFFFF" d="M182.778,12.323c1.143-0.374,2.011,0.381,2.675,0.823
	c0.118,1.694,0.046,3.2-1.646,3.085c0.683-1.122,0.435-3.068-0.823-3.394c-0.094,1.021,0.644,2.098,0.72,3.291
	c-2.712,2.266-4.347-3.646-0.926-3.291C183.081,12.749,182.646,12.578,182.778,12.323z"/>
<path fill="#00A9EC" d="M20.64,45.196h0.726c-0.243,0-0.485-0.005-0.726-0.014V45.196z"/>
<path fill="#00A9EC" d="M22.091,45.196v-0.014c-0.241,0.009-0.483,0.014-0.726,0.014H22.091z"/>
</svg>
