<?xml version="1.0" encoding="utf-8"?>
<!-- Generator: Adobe Illustrator 15.0.0, SVG Export Plug-In  -->
<!DOCTYPE svg PUBLIC "-//W3C//DTD SVG 1.1//EN" "http://www.w3.org/Graphics/SVG/1.1/DTD/svg11.dtd" [
	<!ENTITY ns_flows "http://ns.adobe.com/Flows/1.0/">
]>
<svg version="1.1"
	 xmlns="http://www.w3.org/2000/svg" xmlns:xlink="http://www.w3.org/1999/xlink" xmlns:a="http://ns.adobe.com/AdobeSVGViewerExtensions/3.0/"
	 x="0px" y="0px" width="26px" height="23px" viewBox="0 0 26 23" enable-background="new 0 0 26 23" xml:space="preserve">
<defs>
</defs>
<path fill="#FFFFFF" d="M16.453,21.289H1.934V1.934h14.519v3.301l1.934-2.156v-1.11C18.387,0.883,17.504,0,16.414,0H1.969
	C0.883,0,0,0.883,0,1.969v19.285c0,1.09,0.883,1.973,1.969,1.973h14.449c1.086,0,1.969-0.883,1.969-1.973v-6.348l-1.934,2.156
	V21.289z M16.453,21.289"/>
<path fill="#FFFFFF" d="M14.809,5.485c0-0.535-0.434-0.969-0.965-0.969H4.535C4,4.516,3.566,4.95,3.566,5.485
	C3.566,6.02,4,6.454,4.535,6.454h9.305C14.375,6.454,14.809,6.02,14.809,5.485L14.809,5.485z M14.809,5.485"/>
<path fill="#FFFFFF" d="M13.477,8.571H4.535C4,8.571,3.566,9.004,3.566,9.539c0,0.536,0.434,0.969,0.969,0.969h7.203L13.477,8.571z
	 M13.477,8.571"/>
<path fill="#FFFFFF" d="M9.859,12.578H4.535c-0.535,0-0.969,0.434-0.969,0.969S4,14.516,4.535,14.516h4.227L9.859,12.578z
	 M9.859,12.578"/>
<path fill="#FFFFFF" d="M3.566,17.602c0,0.535,0.434,0.969,0.969,0.969h3.098c0.012-0.137,0.031-0.215,0.062-0.32l0.465-1.613H4.535
	C4,16.637,3.566,17.07,3.566,17.602L3.566,17.602z M3.566,17.602"/>
<path fill="#FFFFFF" d="M18.094,5.579l-6.758,7.53l-0.524,0.582l3.719,3.34l0.523-0.586l6.757-7.531l0.61-0.679l-3.719-3.336
	L18.094,5.579z M17.77,8.981l-4.43,4.937c-0.055,0.063-0.133,0.102-0.219,0.105c-0.082,0.004-0.164-0.023-0.226-0.082l-0.219-0.195
	c-0.129-0.117-0.137-0.313-0.024-0.441l4.434-4.94c0.055-0.063,0.133-0.098,0.215-0.102s0.164,0.024,0.227,0.078l0.219,0.199
	C17.875,8.653,17.887,8.852,17.77,8.981L17.77,8.981z M19.059,6.633l0.219,0.196c0.129,0.117,0.141,0.312,0.023,0.441l-0.055,0.066
	L18.93,7.688l-0.016,0.016c-0.055,0.062-0.133,0.097-0.215,0.101s-0.164-0.023-0.227-0.078l-0.219-0.199
	c-0.063-0.055-0.098-0.133-0.102-0.215c-0.008-0.082,0.023-0.164,0.078-0.227l0.383-0.429C18.73,6.528,18.93,6.516,19.059,6.633
	L19.059,6.633z M19.059,6.633"/>
<path fill="#FFFFFF" d="M19.34,4.184l-0.277,0.312l3.719,3.336l0.914-1.015l-3.719-3.336L19.34,4.184z M19.34,4.184"/>
<path fill="#FFFFFF" d="M25.547,4.274c-0.016-0.285-0.145-0.555-0.355-0.746l-2.109-1.891c-0.215-0.195-0.496-0.293-0.781-0.277
	c-0.285,0.015-0.555,0.144-0.746,0.359l-1.243,1.387l3.72,3.332l1.242-1.383C25.465,4.84,25.562,4.563,25.547,4.274L25.547,4.274z
	 M23.957,5.051l-2.258-2.023l0.652-0.723l2.254,2.02L23.957,5.051z M23.957,5.051"/>
<path fill="#FFFFFF" d="M9.246,19.18c0.152,0.141,0.371,0.176,0.563,0.098l4.277-1.75l-3.719-3.336L9.09,18.633
	C9.031,18.828,9.094,19.043,9.246,19.18L9.246,19.18z M10.707,15.375l2.16,1.941l-1.679,0.688l-0.985-0.883L10.707,15.375z
	 M10.707,15.375"/>
</svg>
