<?xml version="1.0" encoding="utf-8"?>
<!-- Generator: Adobe Illustrator 15.0.0, SVG Export Plug-In  -->
<!DOCTYPE svg PUBLIC "-//W3C//DTD SVG 1.1//EN" "http://www.w3.org/Graphics/SVG/1.1/DTD/svg11.dtd" [
	<!ENTITY ns_flows "http://ns.adobe.com/Flows/1.0/">
]>
<svg version="1.1"
	 xmlns="http://www.w3.org/2000/svg" xmlns:xlink="http://www.w3.org/1999/xlink" xmlns:a="http://ns.adobe.com/AdobeSVGViewerExtensions/3.0/"
	 x="0px" y="0px" width="44px" height="44px" viewBox="0 0 44 44" enable-background="new 0 0 44 44" xml:space="preserve">
<defs>
</defs>
<path fill="#FFFFFF" d="M22.219,0C9.965,0,0,9.965,0,22.219c0,12.25,9.965,22.214,22.219,22.214c12.25,0,22.215-9.965,22.215-22.214
	C44.434,9.965,34.469,0,22.219,0L22.219,0z M22.219,42.441c-11.153,0-20.227-9.074-20.227-20.222
	c0-11.152,9.074-20.223,20.227-20.223c11.148,0,20.223,9.071,20.223,20.219C42.441,33.367,33.367,42.441,22.219,42.441
	L22.219,42.441z M22.219,42.441"/>
<path fill="#FFFFFF" d="M22.379,8.555c-1.867,0-3.883,0.512-5.172,1.301l0.582,1.535c1.078-0.613,2.516-0.988,3.856-0.988
	c2.769,0.046,4.421,1.562,4.421,4.058c0,2.027-1.094,3.715-2.988,5.945c-1.84,2.207-2.648,4.445-2.406,6.652l0.047,0.578h2.117
	l-0.02-0.5c-0.132-2.27,0.598-4.184,2.458-6.375c1.977-2.352,3.383-4.211,3.383-6.75C28.652,11.492,27.008,8.555,22.379,8.555
	L22.379,8.555z M22.379,8.555"/>
<path fill="#FFFFFF" d="M21.766,31.867c-1.141,0-1.903,0.813-1.903,2.023c0,1.172,0.766,1.988,1.864,1.988
	c1.14,0,1.906-0.797,1.906-1.988C23.633,32.68,22.883,31.867,21.766,31.867L21.766,31.867z M21.766,31.867"/>
</svg>
