<?xml version="1.0" encoding="utf-8"?>
<!-- Generator: Adobe Illustrator 15.0.0, SVG Export Plug-In  -->
<!DOCTYPE svg PUBLIC "-//W3C//DTD SVG 1.1//EN" "http://www.w3.org/Graphics/SVG/1.1/DTD/svg11.dtd" [
	<!ENTITY ns_flows "http://ns.adobe.com/Flows/1.0/">
]>
<svg version="1.1"
	 xmlns="http://www.w3.org/2000/svg" xmlns:xlink="http://www.w3.org/1999/xlink" xmlns:a="http://ns.adobe.com/AdobeSVGViewerExtensions/3.0/"
	 x="0px" y="0px" width="36px" height="38px" viewBox="0 0 36 38" enable-background="new 0 0 36 38" xml:space="preserve">
<defs>
</defs>
<path fill="#FFFFFF" d="M4.109,30.816V4.109H25.68v22.43l4.109-3.395V2.055C29.789,0.922,28.867,0,27.734,0H2.055
	C0.918,0,0,0.922,0,2.055v30.816c0,1.133,0.918,2.055,2.055,2.055H19.98l-2.906-4.109H4.109z M4.109,30.816"/>
<path fill="#FFFFFF" d="M35.703,22.086c-0.379-0.355-0.961-0.371-1.359-0.043l-9.422,7.785l-6.281-3.766
	c-0.414-0.25-0.95-0.176-1.282,0.184c-0.328,0.355-0.367,0.895-0.086,1.289l6.805,9.629c0.191,0.27,0.5,0.434,0.832,0.438h0.008
	c0.328,0,0.637-0.156,0.828-0.422l10.082-13.738C36.133,23.023,36.078,22.441,35.703,22.086L35.703,22.086z M35.703,22.086"/>
<path fill="#FFFFFF" d="M21.059,7.191H8.73c-1.136,0-2.054,0.918-2.054,2.055c0,1.133,0.918,2.055,2.054,2.055h12.325
	c1.137,0,2.055-0.922,2.055-2.055C23.109,8.109,22.191,7.191,21.059,7.191L21.059,7.191z M21.059,7.191"/>
<path fill="#FFFFFF" d="M21.059,13.352H8.73c-1.136,0-2.054,0.921-2.054,2.054c0,1.137,0.918,2.055,2.054,2.055h12.325
	c1.137,0,2.055-0.918,2.055-2.055C23.109,14.273,22.191,13.352,21.059,13.352L21.059,13.352z M21.059,13.352"/>
<path fill="#FFFFFF" d="M21.059,19.516H8.73c-1.136,0-2.054,0.922-2.054,2.055s0.918,2.055,2.054,2.055h12.325
	c1.137,0,2.055-0.922,2.055-2.055S22.191,19.516,21.059,19.516L21.059,19.516z M21.059,19.516"/>
</svg>
